<?xml version="1.0" standalone="no"?>
<!DOCTYPE svg PUBLIC "-//W3C//DTD SVG 20010904//EN"
 "http://www.w3.org/TR/2001/REC-SVG-20010904/DTD/svg10.dtd">
<svg version="1.0" xmlns="http://www.w3.org/2000/svg"
 width="512.000000pt" height="512.000000pt" viewBox="0 0 512.000000 512.000000"
 preserveAspectRatio="xMidYMid meet">

<g transform="translate(0.000000,512.000000) scale(0.100000,-0.100000)"
fill="#000000" stroke="none">
<path d="M3063 4784 c-206 -45 -375 -191 -456 -394 l-26 -65 -543 -5 c-527 -5
-545 -6 -595 -27 -85 -34 -135 -67 -190 -125 -96 -102 -133 -208 -133 -380 l0
-108 159 0 159 0 4 109 c3 118 12 141 72 185 27 21 38 21 547 21 l520 0 26
-65 c65 -161 178 -282 331 -352 109 -50 176 -58 473 -58 l269 0 0 80 0 80 160
0 160 0 0 160 0 160 -160 0 -160 0 0 160 0 160 160 0 160 0 0 160 0 160 -160
0 -160 0 0 80 0 80 -277 -1 c-193 -1 -297 -5 -340 -15z"/>
<path d="M840 3345 c-169 -42 -330 -166 -401 -310 -29 -59 -185 -588 -215
-728 -54 -255 -57 -298 -61 -920 l-4 -587 159 0 159 0 6 68 c24 248 155 466
364 602 136 89 259 125 433 125 174 0 297 -36 433 -125 209 -136 340 -354 364
-602 l6 -68 557 0 557 0 6 68 c24 248 155 466 364 602 136 89 259 125 433 125
174 0 297 -36 433 -125 209 -136 340 -354 364 -602 l6 -68 79 0 79 0 -3 533
c-3 519 -4 534 -25 597 -52 151 -171 295 -299 362 -38 19 -213 83 -390 142
l-321 107 -289 241 c-504 421 -544 448 -752 518 -179 60 -182 60 -1126 59
-686 0 -872 -3 -916 -14z m2020 -1105 l239 0 -286 -412 c-157 -227 -292 -420
-299 -428 -12 -12 -14 25 -14 253 l0 267 -240 0 -239 0 196 283 c108 155 241
347 297 427 l101 145 3 -267 2 -268 240 0z"/>
<path d="M1161 1264 c-253 -68 -410 -331 -346 -579 67 -256 329 -415 580 -350
256 67 415 329 350 578 -67 259 -333 419 -584 351z"/>
<path d="M3881 1264 c-253 -68 -410 -331 -346 -579 67 -256 329 -415 580 -350
256 67 415 329 350 578 -67 259 -333 419 -584 351z"/>
</g>
</svg>
