<?xml version="1.0" standalone="no"?>
<!DOCTYPE svg PUBLIC "-//W3C//DTD SVG 20010904//EN"
 "http://www.w3.org/TR/2001/REC-SVG-20010904/DTD/svg10.dtd">
<svg version="1.0" xmlns="http://www.w3.org/2000/svg"
 width="512.000000pt" height="512.000000pt" viewBox="0 0 512.000000 512.000000"
 preserveAspectRatio="xMidYMid meet">

<g transform="translate(0.000000,512.000000) scale(0.100000,-0.100000)"
fill="#000000" stroke="none">
<path d="M475 3564 c-72 -24 -96 -61 -229 -358 l-125 -278 21 -88 22 -88 -37
-54 -36 -53 -21 -245 c-19 -222 -23 -247 -43 -268 -18 -20 -22 -35 -22 -96 0
-52 5 -79 18 -99 17 -27 19 -27 132 -27 l114 0 3 -37 c3 -37 4 -38 44 -41 l41
-3 6 68 c8 89 29 147 75 208 48 63 107 108 179 135 85 32 216 26 298 -15 123
-60 199 -170 217 -315 l11 -80 38 0 c28 0 39 4 39 15 0 13 153 15 1320 15
1188 0 1320 -2 1320 -16 0 -12 9 -14 43 -12 l42 3 6 75 c11 137 93 256 218
317 50 25 67 28 161 28 99 0 109 -2 172 -33 127 -62 204 -179 216 -324 l5 -68
43 0 c32 0 44 4 44 15 0 12 16 15 88 15 81 0 90 2 111 24 13 14 35 26 50 28
18 2 31 14 44 38 25 49 18 152 -13 184 -20 22 -21 32 -20 187 1 90 1 174 1
186 -1 35 -206 262 -256 284 -22 9 -128 31 -235 48 -228 36 -122 -11 -908 400
-288 151 -552 283 -585 294 -59 19 -98 20 -842 28 -429 4 -994 9 -1255 12
-380 4 -484 2 -515 -9z m766 -92 c4 -4 8 -135 10 -291 l4 -284 -120 1 c-615 9
-674 15 -661 61 3 9 30 116 61 239 30 123 61 232 68 242 30 49 52 52 352 45
154 -4 283 -9 286 -13z m1164 -4 c3 -3 15 -139 28 -302 l23 -298 -356 7 c-195
4 -434 10 -530 14 l-175 6 -27 250 c-14 138 -28 270 -31 294 l-5 44 535 -5
c294 -3 536 -8 538 -10z m680 -28 c34 -14 219 -107 412 -208 l352 -183 70 -78
c72 -80 86 -113 54 -129 -16 -8 -1341 15 -1351 23 -2 2 -26 129 -52 282 -27
153 -51 289 -53 301 l-5 24 257 -4 c244 -4 259 -5 316 -28z m-1401 -646 c9 -3
16 -15 16 -25 0 -18 -9 -19 -130 -19 l-130 0 0 25 0 25 114 0 c63 0 121 -3
130 -6z m1205 -20 c21 -5 31 -12 31 -25 0 -18 -10 -19 -130 -19 l-130 0 0 25
c0 25 0 25 99 25 54 0 113 -3 130 -6z"/>
<path d="M636 2191 c-99 -41 -168 -110 -202 -203 -25 -69 -21 -176 9 -241 100
-219 373 -271 541 -104 89 89 120 233 76 349 -28 74 -96 150 -167 184 -75 37
-186 43 -257 15z m215 -124 c68 -36 103 -93 107 -176 3 -54 0 -76 -16 -108
-57 -111 -180 -152 -290 -97 -124 62 -158 221 -69 329 62 75 180 98 268 52z"/>
<path d="M714 1971 c-65 -28 -84 -113 -35 -162 68 -68 184 -8 167 85 -11 59
-80 99 -132 77z"/>
<path d="M4222 2192 c-207 -74 -285 -318 -161 -506 66 -98 212 -160 326 -137
259 52 365 343 199 546 -19 23 -62 56 -97 75 -81 43 -184 51 -267 22z m207
-121 c51 -27 98 -82 112 -133 43 -162 -106 -313 -265 -268 -57 16 -114 63
-137 114 -22 49 -25 133 -5 179 16 41 71 96 111 113 46 20 139 17 184 -5z"/>
<path d="M4284 1961 c-38 -23 -59 -76 -45 -113 14 -37 58 -68 98 -68 103 0
128 155 31 189 -42 15 -48 14 -84 -8z"/>
</g>
</svg>
